<svg width="24" height="25" viewBox="0 0 24 25" fill="none" xmlns="http://www.w3.org/2000/svg">
<path d="M22 18.0889H2" stroke="#030303" stroke-width="1.5" stroke-linecap="round" stroke-linejoin="round"/>
<path d="M22 21.5889V16.5889C22 14.7033 22 13.7605 21.4142 13.1747C20.8284 12.5889 19.8856 12.5889 18 12.5889H6C4.11438 12.5889 3.17157 12.5889 2.58579 13.1747C2 13.7605 2 14.7033 2 16.5889V21.5889" stroke="#030303" stroke-width="1.5" stroke-linecap="round" stroke-linejoin="round"/>
<path d="M11 12.5889V10.8023C11 10.4216 10.9428 10.2943 10.6497 10.1442C10.0395 9.83179 9.29865 9.58887 8.5 9.58887C7.70135 9.58887 6.96055 9.83179 6.35025 10.1442C6.05721 10.2943 6 10.4216 6 10.8023V12.5889" stroke="#030303" stroke-width="1.5" stroke-linecap="round"/>
<path d="M18 12.5889V10.8023C18 10.4216 17.9428 10.2943 17.6497 10.1442C17.0395 9.83179 16.2987 9.58887 15.5 9.58887C14.7013 9.58887 13.9605 9.83179 13.3503 10.1442C13.0572 10.2943 13 10.4216 13 10.8023V12.5889" stroke="#030303" stroke-width="1.5" stroke-linecap="round"/>
<path d="M21 12.5889V7.94944C21 7.2578 21 6.91198 20.8079 6.5854C20.6157 6.25882 20.342 6.08978 19.7944 5.7517C17.5869 4.38865 14.8993 3.58887 12 3.58887C9.10067 3.58887 6.41314 4.38865 4.20558 5.7517C3.65804 6.08978 3.38427 6.25882 3.19213 6.5854C3 6.91198 3 7.2578 3 7.94944V12.5889" stroke="#030303" stroke-width="1.5" stroke-linecap="round"/>
</svg>
