<svg width="24" height="25" viewBox="0 0 24 25" fill="none" xmlns="http://www.w3.org/2000/svg">
<path d="M17.2561 17.7847V9.16527C17.2561 8.32377 16.574 7.6416 15.7324 7.6416H12.6851H4.30492C3.46342 7.6416 2.78125 8.32377 2.78125 9.16527V12.2126V20.5928C2.78125 21.4343 3.46342 22.1165 4.30492 22.1165H7.35226H15.7324C16.574 22.1165 17.2561 21.4343 17.2561 20.5928V17.5454" stroke="#030303" stroke-width="1.5" stroke-linecap="round" stroke-linejoin="round"/>
<path d="M2.95312 3.45703L16.7124 3.45703" stroke="#030303" stroke-linecap="round"/>
<path d="M15.9024 5.11914L17.5241 3.45703L15.9023 1.79493" stroke="#030303" stroke-miterlimit="16" stroke-linecap="round" stroke-linejoin="round"/>
<path d="M4.15038 5.11914L2.52864 3.45703L4.15039 1.79493" stroke="#030303" stroke-miterlimit="16" stroke-linecap="round" stroke-linejoin="round"/>
<path d="M21.2285 7.54492L21.2285 21.3042" stroke="#030303" stroke-linecap="round"/>
<path d="M19.5664 20.4942L21.2285 22.1159L22.8906 20.4941" stroke="#030303" stroke-miterlimit="16" stroke-linecap="round" stroke-linejoin="round"/>
<path d="M19.5664 8.74413L21.2285 7.12239L22.8906 8.74414" stroke="#030303" stroke-miterlimit="16" stroke-linecap="round" stroke-linejoin="round"/>
</svg>
