<svg width="140" height="24" viewBox="0 0 140 24" fill="none" xmlns="http://www.w3.org/2000/svg">
<path d="M24 9.1713H14.8309L12.0084 0L9.1691 9.1713L0 9.15373L7.41545 14.8287L4.5762 24L11.9916 18.325L19.4071 24L16.5846 14.8287L24 9.1713Z" fill="#E0C798"/>
<path d="M17.2167 16.9013L16.5821 14.8281L12.0059 18.3245L17.2167 16.9013Z" fill="#D5B475"/>
<path d="M53 9.1713H43.8309L41.0084 0L38.1691 9.1713L29 9.15373L36.4154 14.8287L33.5762 24L40.9916 18.325L48.4071 24L45.5846 14.8287L53 9.1713Z" fill="#E0C798"/>
<path d="M46.2167 16.9013L45.5821 14.8281L41.0059 18.3245L46.2167 16.9013Z" fill="#D5B475"/>
<path d="M82 9.1713H72.8309L70.0084 0L67.1691 9.1713L58 9.15373L65.4154 14.8287L62.5762 24L69.9916 18.325L77.4071 24L74.5846 14.8287L82 9.1713Z" fill="#E0C798"/>
<path d="M75.2167 16.9013L74.5821 14.8281L70.0059 18.3245L75.2167 16.9013Z" fill="#D5B475"/>
<path d="M111 9.1713H101.831L99.0084 0L96.1691 9.1713L87 9.15373L94.4154 14.8287L91.5762 24L98.9916 18.325L106.407 24L103.585 14.8287L111 9.1713Z" fill="#E0C798"/>
<path d="M104.217 16.9013L103.582 14.8281L99.0059 18.3245L104.217 16.9013Z" fill="#D5B475"/>
<path d="M140 9.1713H130.831L128.008 0L125.169 9.1713L116 9.15373L123.415 14.8287L120.576 24L127.992 18.325L135.407 24L132.585 14.8287L140 9.1713Z" fill="#E0C798"/>
<path d="M133.217 16.9013L132.582 14.8281L128.006 18.3245L133.217 16.9013Z" fill="#D5B475"/>
</svg>
