<svg width="24" height="25" viewBox="0 0 24 25" fill="none" xmlns="http://www.w3.org/2000/svg">
<path d="M12 22.5889C17.5228 22.5889 22 18.1117 22 12.5889C22 7.06602 17.5228 2.58887 12 2.58887C6.47715 2.58887 2 7.06602 2 12.5889C2 18.1117 6.47715 22.5889 12 22.5889Z" stroke="#030303" stroke-width="1.5"/>
<path d="M7.5 17.5889C9.8317 15.1467 14.1432 15.0317 16.5 17.5889M14.4951 10.0889C14.4951 11.4696 13.3742 12.5889 11.9915 12.5889C10.6089 12.5889 9.48797 11.4696 9.48797 10.0889C9.48797 8.70816 10.6089 7.58887 11.9915 7.58887C13.3742 7.58887 14.4951 8.70816 14.4951 10.0889Z" stroke="#030303" stroke-width="1.5" stroke-linecap="round"/>
</svg>
